<!-- rgb(82, 246, 126) -->
<svg xmlns="http://www.w3.org/2000/svg" style="background-color: rgb(82, 246, 126);" viewBox="0 0 292 80.5" preserveAspectRatio="xMidYMid meet">
  <!-- <defs id="SvgjsDefs1001"></defs> -->
  <g id="SvgjsG1007" featurekey="root" fill="#52f67e"></g>
  <g id="SvgjsG1008" featurekey="symbol1" fill="#194621" transform="matrix(0.7416746674219994,0,0,0.7416746674219994,108.91589422698314,3.447304285033992)">
    <polygon points="89.231,9.428 97.191,23.214 73.314,27.809 "></polygon>
    <polygon points="70.744,28.246 29.258,28.246 12.446,8.835 87.554,8.835 "></polygon>
    <polygon points="50,64.001 30.314,29.902 69.688,29.902 "></polygon>
    <polygon points="26.688,27.809 2.81,23.214 10.769,9.428 "></polygon>
    <polygon points="28.351,29.817 49.093,65.745 40.688,90.009 3.135,24.964 "></polygon>
    <polygon points="50,68.189 57.959,91.165 42.041,91.165 "></polygon>
    <polygon points="50.906,65.745 71.649,29.817 96.866,24.964 59.312,90.009 "></polygon>
  </g>
  <!-- <g id="SvgjsG1009" featurekey="text1" fill="#194621" transform="matrix(4.098359758704817,0,0,4.098359758704817,-2.131145042106275,77.88525346234512)">
    <path d="M6.96 17.02 l2.74 0.48 c-0.52 1.74 -1.76 2.78 -4.26 2.78 c-3.12 0 -4.92 -1.62 -4.92 -4.84 c0 -2.6 1.16 -5.06 4.78 -5.06 c2.94 0 4.4 1.62 4.4 4.64 l0 1.02 l-5.92 0 c0.08 1.34 0.46 1.92 1.76 1.92 c0.8 0 1.28 -0.22 1.42 -0.94 z M3.82 14.14 l2.6 0 l0 -0.02 c0 -1.1 -0.42 -1.52 -1.24 -1.52 c-0.76 0 -1.2 0.36 -1.36 1.54 z M10.96 20 l0 -2.26 l1.06 0 l0 -4.82 l-1.36 0 l0 -2.26 l4.26 0 l0 1.68 c0.26 -0.64 1.04 -1.96 3.06 -1.96 c1.2 0 2.34 0.5 2.74 2.02 c0.22 -0.54 0.98 -2.02 3.14 -2.02 c1.38 0 2.98 0.56 2.98 3.48 l0 3.88 l1.06 0 l0 2.26 l-5.04 0 l0 -2.26 l0.86 0 l0 -3.08 c0 -1.1 -0.26 -1.64 -0.9 -1.64 c-1.08 0 -1.64 1.3 -1.82 1.86 l0 2.86 l0.86 0 l0 2.26 l-4.84 0 l0 -2.26 l0.86 0 l0 -3.08 c0 -1.08 -0.26 -1.64 -0.9 -1.64 c-1.12 0 -1.68 1.38 -1.84 1.92 l0 2.8 l0.86 0 l0 2.26 l-5.04 0 z M35.2 17.02 l2.74 0.48 c-0.52 1.74 -1.76 2.78 -4.26 2.78 c-3.12 0 -4.92 -1.62 -4.92 -4.84 c0 -2.6 1.16 -5.06 4.78 -5.06 c2.94 0 4.4 1.62 4.4 4.64 l0 1.02 l-5.92 0 c0.08 1.34 0.46 1.92 1.76 1.92 c0.8 0 1.28 -0.22 1.42 -0.94 z M32.06 14.14 l2.6 0 l0 -0.02 c0 -1.1 -0.42 -1.52 -1.24 -1.52 c-0.76 0 -1.2 0.36 -1.36 1.54 z M39.2 20 l0 -2.26 l1.06 0 l0 -4.82 l-1.36 0 l0 -2.26 l4.26 0 l0 1.7 c0.44 -1.06 1.22 -1.98 2.48 -1.98 c1.4 0 1.84 0.7 1.84 0.7 l-1.26 2.96 s-0.3 -0.66 -1.22 -0.66 c-0.84 0 -1.32 0.78 -1.62 1.62 l0 2.74 l1.06 0 l0 2.26 l-5.24 0 z M51.24 13.9 l-3.1 -0.58 c-0.02 -0.1 -0.02 -0.2 -0.02 -0.3 c0 -1.48 1.44 -2.64 4.3 -2.64 s3.92 1.18 3.92 3.76 l0 2.2 c0 0.86 0.02 1.36 0.66 1.36 c0.12 0 0.26 -0.02 0.44 -0.06 l-0.56 2.46 c-0.34 0.06 -0.64 0.08 -0.9 0.08 c-1.48 0 -2.12 -0.7 -2.34 -1.3 c-0.48 0.68 -1.2 1.4 -2.66 1.4 c-1.7 0 -3.16 -0.96 -3.16 -2.74 c0 -2.16 2.14 -3.14 5.4 -3.16 l0 -0.28 c0 -1.06 -0.26 -1.44 -1.02 -1.44 c-0.64 0 -0.98 0.26 -0.98 0.96 c0 0.08 0 0.18 0.02 0.28 z M53.22 16.88 l0 -0.74 c-1.22 0.02 -2.26 0.24 -2.26 1.16 c0 0.52 0.34 0.76 0.86 0.76 c0.6 0 1.32 -0.32 1.4 -1.18 z M58.06 20 l0 -2.26 l1.06 0 l0 -9.84 l-1.26 0 l0 -2.26 l4.38 0 l0 12.1 l1.06 0 l0 2.26 l-5.24 0 z M65.24000000000001 16.96 l0 -4.04 l-1.36 0 l0 -2.26 l1.4 0 l0.18 -2.56 l2.9 0 l0 2.56 l2.56 0 l0 2.26 l-2.56 0 l0 4.04 c0 0.46 0.14 0.74 0.54 0.74 c0.5 0 0.6 -0.56 0.64 -1.12 l2.28 0.8 c-0.4 1.58 -1.02 2.82 -3.3 2.82 c-2.48 0 -3.28 -1.58 -3.28 -3.24 z"></path>
  </g> -->
</svg>
